<?xml version="1.0" encoding="UTF-8"?>
<svg xmlns="http://www.w3.org/2000/svg" viewBox="0 0 500 500" xmlns:bx="https://boxy-svg.com">
  <defs>
    <bx:export>
      <bx:file format="svg"/>
    </bx:export>
  </defs>
  <path id="path38" fill="#000000" fill-rule="evenodd" stroke="#000000" stroke-width="3.93057" stroke-linecap="square" stroke-linejoin="bevel" d="M 232.696 150.176 L 87.953 350.023 L 81.054 366.936 L 106.125 379.378 L 124.387 371.719 L 135.643 349.225 L 171.659 301.083 L 181.051 288.445 L 177.989 283.462 L 224.85 228.261 L 271.589 163.627 L 280.534 159.714 L 280.618 156.625 L 291.913 152.456 L 291.626 143.392 L 302.101 141.97 L 309.034 131.769 L 342.667 156.639 L 366.812 174.009 L 389.056 194.527 L 402.379 214.058 L 403.43 218.558 L 416.114 212.348 L 418.77 204.645 L 413.955 201.532 L 406.096 182.732 L 406.372 174.38 L 379.283 149.844 L 379.897 140.751 L 363.211 129.493 L 355.504 126.837 L 335.81 112.407 L 342.034 102.775 L 332.656 98.901 L 336.894 83.887 L 333.434 77.829 L 335.695 69.048 L 311.495 49.864 L 304.898 53.522 L 298.639 50.639 L 291.447 52.683 L 282.561 64.216 L 273.238 56.349 L 266.191 62.924 L 245.99 49.598 L 221.791 30.415 L 212.898 30.338 L 195.388 21.826 L 182.583 12.801 L 172.56 17.112 L 146.843 12.855 L 138.268 22.744 L 137.905 28.382 L 152.517 31.543 L 168.41 34.844 L 177.792 44.523 L 201.926 56.087 L 219.27 70.775 L 257.748 93.856 L 251.381 104.764 L 252.18 112.723 L 236.364 134.454 L 238.213 141.108 L 232.696 150.176" style="display: inline;"/>
  <path id="shape0" fill="#000000" fill-rule="evenodd" stroke="#000000" stroke-width="3.64902" stroke-linecap="square" stroke-linejoin="bevel" d="M 42.038 134.442 L 38.098 165.712 L 55.109 167.245 L 60.358 131.742 L 63.117 128.323 L 62.51 127.073 L 66.155 123.063 L 64.158 119.505 L 68.046 116.763 L 68.697 111.252 L 87.286 114.202 L 100.529 116.128 L 113.668 119.703 L 123.041 124.736 L 124.395 126.316 L 128.17 121.204 L 127.631 117.576 L 125.063 117.334 L 118.024 111.459 L 116.401 108.065 L 100.494 103.892 L 98.854 100.134 L 89.854 99.102 L 86.227 99.64 L 75.37 97.965 L 75.856 92.828 L 71.308 93.227 L 69.885 86.354 L 67.247 84.653 L 66.327 80.679 L 52.684 78.041 L 50.81 80.87 L 47.712 81.018 L 45.264 83.326 L 44.11 89.774 L 38.756 88.568 L 37.307 92.656 L 40.353 106.758 L 40.076 112.433 L 42.046 115.445 L 40.241 127.403 L 42.359 129.677 L 42.038 134.442" style="display:none"/>
  <g id="layer2" style="display: none;" transform="matrix(2.063246, 0, 0, 2.063246, -5.288045, -16.522757)">
    <g id="g38" transform="matrix(0.71716437,-0.37273594,0.37273594,0.71716437,9.0069897,72.681393)">
      <path style="fill:#000000;stroke:#000000;stroke-width:3;stroke-dasharray:none;stroke-opacity:1" d="m 86.077964,64.917782 9.245562,-15.998245 -15.604774,-3.810643 26.045218,-10.622796 9.5718,-10.748701 2.57972,-23.99426148 10.13,23.03544148 19.75881,-11.660719 -3.64458,14.626315 20.30677,1.253605 -11.86584,18.641327 8.95682,21.552505 -32.21326,4.621881 -20.64399,11.40249 -4.96108,-19.995791 z" id="path12"/>
      <path style="fill:#ffffff;fill-opacity:1;stroke:#000000;stroke-width:0;stroke-dasharray:none;stroke-opacity:1" d="m 112.6058,70.175257 c -0.28197,-1.002241 -1.05778,-4.038749 -1.72381,-6.747828 -0.66616,-2.709053 -1.24032,-4.944899 -1.27618,-4.968487 -0.0359,-0.02356 -2.8721,0.222771 -6.30279,0.54744 l -6.237594,0.590343 2.89606,-5.078829 c 1.592854,-2.793349 3.018694,-5.292156 3.168544,-5.552885 l 0.27247,-0.474069 -5.886494,-1.494025 -5.88649,-1.494034 9.771974,-4.001046 9.77197,-4.001057 2.96438,-3.364952 2.96438,-3.364924 0.98982,-9.428457 c 0.66501,-6.334867 1.05574,-9.333983 1.19081,-9.140543 0.11054,0.158359 1.81547,3.990612 3.78867,8.516122 1.9732,4.525527 3.65206,8.269613 3.73083,8.320206 0.0788,0.05061 3.1889,-1.722951 6.91145,-3.941192 3.72253,-2.218269 6.82518,-3.996655 6.89474,-3.951959 0.0695,0.04469 -0.45041,2.426731 -1.15549,5.293395 l -1.28197,5.212158 1.56817,0.11713 c 0.8625,0.06443 3.83167,0.258705 6.59811,0.431723 2.76646,0.173034 5.1555,0.330446 5.30895,0.3498 0.1857,0.02341 -1.11167,2.25335 -3.87871,6.666734 l -4.15774,6.631516 3.06462,7.390648 c 1.68552,4.064866 3.022,7.458365 2.96992,7.541116 -0.0521,0.08269 -5.04621,0.857585 -11.09807,1.721857 l -11.00335,1.571427 -7.05372,3.927178 c -3.87953,2.159954 -7.12501,3.943045 -7.21217,3.962445 -0.0872,0.01941 -0.38922,-0.784721 -0.67129,-1.786951 z" id="path37"/>
    </g>
  </g>
  <g id="layer3" transform="matrix(2.063246, 0, 0, 2.063246, 102.796159, -16.522757)" style="">
    <path style="fill:#ffffff;fill-opacity:1;stroke:#000000;stroke-width:30.2962;stroke-linecap:butt;stroke-dasharray:30.2962, 9.08886;stroke-dashoffset:0;stroke-opacity:1" d="M 12.808 225.027 L 128.779 225.407" id="path41"/>
  </g>
</svg>